<svg width="79" height="79" viewBox="0 0 79 79" fill="none" xmlns="http://www.w3.org/2000/svg">
<path d="M70.3537 40.9085C70.1907 40.13 70.3161 39.703 69.2626 38.5101C68.159 37.267 69.3504 39.5524 68.6481 40.7202C67.3564 42.88 67.532 44.3366 67.532 44.3366C67.532 44.3366 69.1247 44.6003 70.0025 43.5958C70.8679 42.6038 70.5293 41.6871 70.3662 40.9085H70.3537Z" fill="white"/>
<path d="M66.0396 42.3533C65.5756 42.2528 64.472 42.1021 63.7572 42.3533C63.0424 42.6044 62.9797 42.8179 62.917 43.4081C62.8543 43.9982 62.917 44.2745 62.917 44.2745C62.917 44.2745 64.8733 44.3373 65.7637 44.8898C66.0773 45.0907 66.6541 44.2494 66.6416 43.7722C66.6416 43.295 66.5162 42.4412 66.0522 42.3533H66.0396Z" fill="white"/>
<path d="M47.5169 41.7879C47.0278 41.8256 46.175 43.4329 45.1718 44.224C44.1685 45.0151 43.9177 45.1658 43.5666 44.8518C43.2154 44.5379 42.3376 42.7297 41.9362 42.6292C41.5349 42.5288 41.3719 43.3827 40.6822 44.0105C39.9799 44.6384 40.03 45.216 39.3528 45.2662C38.6756 45.3165 37.3589 42.7171 37.0955 42.3906C36.8321 42.0642 36.6816 42.3027 36.3681 42.6543C36.0546 43.0059 35.4903 43.8975 35.252 43.7594C35.0137 43.6212 35.1893 42.6167 35.9167 41.4865C36.6566 40.3564 36.8321 40.3187 37.0704 40.5573C37.3087 40.7959 38.6255 43.2948 39.0017 43.6966C39.3779 44.0984 40.8452 41.2103 41.6604 40.9466C42.4755 40.6703 42.626 40.9215 42.7765 41.1852C42.927 41.4489 43.4788 43.6087 43.7923 43.7343C44.1058 43.8598 44.5447 43.5836 44.7579 43.2445C44.9711 42.9055 46.4384 41.3861 46.4384 41.3861C46.4384 41.3861 45.5355 40.9842 44.3315 40.3815C43.1276 39.7662 42.9144 39.2262 42.5507 39.3016C42.1871 39.3769 41.999 39.9169 41.2214 39.8918C40.4439 39.8541 40.005 37.8198 39.5033 37.7319C39.0017 37.644 38.2618 38.4854 37.9357 39.2388C37.6097 39.9797 37.0203 39.5151 36.8572 39.1634C36.6942 38.8118 36.0295 38.3723 35.7662 38.5356C35.5028 38.6863 34.6751 40.3187 34.6375 42.3655C34.5873 44.4123 34.5873 47.1875 35.9292 47.5767C37.2711 47.966 38.4248 47.0368 38.7383 46.6726C39.0644 46.3085 38.776 46.7731 39.24 47.1624C39.704 47.5391 40.2558 48.4934 41.0459 48.1418C41.8359 47.7777 43.3157 46.2834 45.0965 45.329C46.8773 44.3747 47.6047 44.6007 47.8555 43.9728C48.1063 43.345 48.4198 42.1144 48.4198 42.1144C48.4198 42.1144 47.9809 41.7879 47.4918 41.8256L47.5169 41.7879Z" fill="white"/>
<path d="M61.0233 42.5037C60.5593 42.4158 60.2207 42.4158 59.5059 42.6669C58.7911 42.9181 58.8914 42.7297 58.5152 43.1943L57.7251 44.1487C57.7251 44.1487 60.76 43.5334 61.6504 44.0733C61.9764 44.2742 61.9514 42.9432 61.9388 42.4534C61.9388 41.9763 61.4873 42.579 61.0359 42.4911L61.0233 42.5037Z" fill="white"/>
<path d="M57.1231 43.0315C57.1231 43.0315 55.9443 43.2826 55.6057 43.3579C54.778 43.5337 54.6777 42.9436 53.7371 42.9812C52.7965 43.0189 53.0724 44.4127 53.3358 44.1993C53.6117 43.9858 54.6526 44.3374 56.3958 44.1239C58.1389 43.9105 57.1231 43.0315 57.1231 43.0315Z" fill="white"/>
<path d="M49.7115 39.1261C49.699 39.6159 49.3604 40.9344 49.2224 42.0268C49.0845 43.1193 47.9558 44.5257 49.0092 44.2997C49.7867 44.1364 50.953 43.8853 51.5174 43.5211C52.0817 43.157 51.2415 41.5497 50.953 40.8465C50.4514 39.6535 49.7366 38.3978 49.7115 39.1387V39.1261Z" fill="white"/>
<path d="M37.7977 31.2147C38.7383 31.6291 39.0267 31.9681 39.0894 32.1816C39.1145 31.6416 39.2399 30.2603 39.9924 29.9338C40.9455 29.532 35.8414 26.8825 35.3648 26.5685C34.8883 26.2546 33.9603 27.7112 34.2487 29.0925C34.5371 30.4612 33.7972 30.838 34.6625 31.064C35.5279 31.29 36.1925 30.5115 37.7977 31.2147Z" fill="white"/>
<path d="M39.0895 32.1816C39.0895 32.3198 39.0895 32.4077 39.0895 32.4077C39.0895 32.4077 39.1396 32.3323 39.0895 32.1816Z" fill="white"/>
<path d="M41.8359 32.1692C42.2497 31.8427 42.3751 31.3153 42.1118 30.9889C41.861 30.6624 41.3092 30.6498 40.8953 30.9889C40.4815 31.3153 40.3561 31.8427 40.6194 32.1692C40.8702 32.4957 41.422 32.5083 41.8359 32.1818V32.1692Z" fill="white"/>
<path d="M58.1515 37.3052C58.2393 37.7196 58.7033 37.1922 58.8036 36.7904C58.9165 36.3634 58.5779 35.7105 57.6875 35.3337C56.7845 34.9445 56.2829 35.1579 55.6057 35.1328C54.2262 35.0952 55.1041 35.4593 55.8063 35.4468C57.3489 35.4091 57.3489 35.836 57.6875 36.263C58.164 36.8657 57.8379 37.4182 58.1515 37.3052Z" fill="white"/>
<path d="M10.8225 37.1792C11.1485 36.6769 11.2112 36.4132 11.2739 35.7979C11.3492 35.1198 10.9855 34.5296 10.534 34.4417C9.56839 34.2534 7.72489 34.7054 6.29524 35.2956C4.86558 35.8858 4.35141 35.9486 5.29197 36.1746C6.08204 36.363 7.46153 37.0536 8.56512 37.355C9.68125 37.6689 10.4839 37.6564 10.7974 37.1666L10.8225 37.1792ZM8.56512 36.363C7.92554 36.3253 6.92228 36.0491 6.80941 36.0742C6.684 36.0993 6.57113 35.9612 6.69654 35.936C6.82195 35.9109 9.65617 35.8607 10.1829 36.1746C10.3585 36.2876 10.4588 36.4509 10.0575 36.4132C9.66871 36.363 9.2047 36.4132 8.56512 36.3755V36.363Z" fill="white"/>
<path d="M11.3366 22.9773C12.0013 23.7182 12.6283 24.9237 13.6441 25.0869C14.6599 25.2502 14.5094 24.8107 14.823 24.4967C15.1365 24.1828 15.2744 23.3792 15.0487 22.9145C14.823 22.4625 13.4686 21.8848 12.6409 21.5584C11.8132 21.2319 10.9353 21.1314 10.4086 20.9807C9.88188 20.8426 10.0574 21.3072 10.0574 21.3072C10.0574 21.3072 10.6719 22.2239 11.3241 22.9648L11.3366 22.9773ZM11.5623 21.7718C11.6752 21.8095 13.8448 22.9397 14.1332 23.4922C14.2335 23.6805 14.2085 23.8814 13.9075 23.6303C13.594 23.3792 13.456 23.5047 12.9293 23.128C12.4026 22.7639 11.7128 21.9979 11.5874 21.9476C11.4746 21.91 11.4495 21.7216 11.5623 21.7593V21.7718Z" fill="white"/>
<path d="M13.9075 47.6013C13.4059 47.5385 12.0389 48.5933 11.3241 49.1082C10.5967 49.623 10.0324 50.3011 9.6311 50.6778C9.22979 51.0545 9.71888 51.1424 9.71888 51.1424C9.71888 51.1424 10.8225 51.1299 11.8007 50.9792C12.7788 50.8285 14.6474 51.4438 15.3121 50.6653C15.7008 50.2132 15.2619 49.0579 15.1616 48.631C15.0613 48.2041 14.4217 47.6767 13.9201 47.6139L13.9075 47.6013ZM13.7319 49.1835C13.3557 49.3091 13.3808 49.4974 12.7788 49.736C12.1894 49.9746 11.1611 50.1379 11.0607 50.2258C10.9604 50.3011 10.7974 50.2258 10.8977 50.1379C10.998 50.0625 13.1174 48.857 13.7319 48.9198C13.9451 48.9449 14.0956 49.0579 13.7319 49.1835Z" fill="white"/>
<path d="M23.9527 58.0619C23.3131 57.8609 22.962 58.1874 22.7864 58.6018C22.3977 59.5185 22.0841 60.9374 22.36 62.4443C22.6359 63.9637 22.3977 64.1646 22.8241 63.6498C23.3508 63.0345 24.4293 62.2308 24.9685 61.2011C25.5078 60.1715 26.1223 59.6817 25.6959 59.2673C25.282 58.8404 24.5421 58.2502 23.9527 58.0493V58.0619ZM23.7897 59.5185C23.6643 59.8952 23.589 59.5436 23.4135 60.1715C23.2504 60.7868 22.7613 61.7034 22.7613 61.829C22.7613 61.9546 22.5983 62.0299 22.5983 61.9169C22.5983 61.7913 22.8742 59.4431 23.3006 58.9911C23.4386 58.8404 23.9151 59.1418 23.7897 59.5185Z" fill="white"/>
<path d="M40.0677 61.6913C39.5786 61.6913 38.8136 61.7917 38.3746 62.0303C37.8856 62.294 37.8856 62.6833 38.036 63.0223C38.3496 63.7632 38.8637 64.3157 39.6538 65.2952C40.1805 65.9481 41.0208 66.6011 41.0333 66.0486C41.0458 65.3956 41.1085 64.1525 40.8201 63.2609C40.5191 62.3694 40.5568 61.6787 40.0802 61.6787L40.0677 61.6913ZM39.867 65.0064C39.7918 64.931 38.5878 63.4493 38.5502 62.947C38.5502 62.7837 38.9891 62.6707 39.1271 62.9595C39.2776 63.2484 39.0268 63.0977 39.2901 63.5372C39.566 63.9892 39.8294 64.7803 39.8921 64.8557C39.9673 64.9185 39.9172 65.0691 39.8419 65.0064H39.867Z" fill="white"/>
<path d="M34.4243 51.2565C34.1985 50.1892 33.0824 45.1412 33.7972 41.7005C34.512 38.2473 35.415 36.5395 35.6909 35.9996C35.9542 35.4596 35.3774 35.9619 34.9761 36.3512C34.5748 36.7404 34.7378 35.7359 34.8757 35.4094C35.0137 35.0955 35.578 34.0909 36.4057 33.9151C37.2334 33.7393 39.0644 34.8569 40.4439 35.874C41.8233 36.8911 45.2595 39.6412 46.3255 40.0932C47.3915 40.5453 48.5452 41.8638 48.7208 40.8466C48.8964 39.8421 48.4449 37.7074 48.8964 37.6069C49.3604 37.5064 50.8276 38.5738 51.3293 39.5156C51.8309 40.4699 52.2698 41.1982 52.3702 41.6629C52.4705 42.1275 53.6744 41.5122 55.8941 42.0772C56.5086 42.2405 58.7284 41.261 58.7033 40.5076C58.6782 39.4528 58.8914 39.7918 59.2676 40.1937C59.6438 40.5955 60.4088 41.0224 61.7632 41.0224C63.1176 41.0224 63.5691 40.8215 64.5849 41.0978C65.6007 41.374 65.9393 41.0601 65.9393 41.0601C65.9393 41.0601 66.4535 39.1514 65.3499 37.8329C64.2463 36.5144 62.6411 35.7987 61.0484 36.0498C59.4557 36.2884 60.4214 35.7861 59.9699 35.4973C59.5184 35.2085 58.7033 33.3877 56.5964 33.5509C54.4896 33.7142 50.2257 35.108 49.4607 35.3215C48.169 35.6856 49.9247 34.4676 50.2633 34.229C50.6521 34.116 51.2039 33.777 51.6553 32.9733C52.3075 31.7929 52.0441 31.2153 51.6553 30.0098C51.2791 28.8043 49.3353 27.5988 47.7802 26.3682C46.2252 25.1502 44.6701 23.9196 44.4945 23.6936C44.319 23.4675 44.5071 23.1787 45.4351 23.2415C46.3506 23.3043 50.3135 27.3854 51.3794 27.5361C51.3794 27.5361 49.6864 25.0497 49.3729 24.2084C49.0719 23.3671 49.8369 24.0452 50.025 24.2084C50.9656 25.0372 51.3418 25.7027 51.9814 27.0212C53.8124 30.826 53.85 29.7838 55.1041 30.8135C56.3581 31.8432 58.8161 31.8934 60.0326 31.5041C61.2491 31.1148 60.6346 29.1183 60.2207 28.4276C59.8194 27.737 55.9945 25.8408 55.1668 25.6274C54.3391 25.4013 52.0065 25.3385 51.9312 24.9618C51.856 24.5851 52.784 24.7735 52.621 24.56C52.4454 24.3465 49.9122 22.4253 48.9089 21.9858C47.9056 21.5588 44.3064 20.3157 41.1211 19.3111C37.9357 18.3065 36.945 17.6159 33.8223 17.5029C30.6996 17.3899 29.2073 17.9675 28.9941 18.1433C28.7809 18.3191 29.27 18.8591 29.0568 19.0349C28.8436 19.2107 28.5677 19.1353 27.3763 17.8419C26.1975 16.5485 24.0656 13.1832 22.7989 12.6684C21.5198 12.1535 20.0776 11.7015 19.3126 11.7266C18.5476 11.7643 18.5476 12.4172 17.745 13.4846C16.9298 14.5519 16.0394 15.1421 15.2744 15.8202C14.5095 16.4983 14.221 16.3099 14.6349 15.8202C15.0487 15.343 14.8731 15.1296 14.8731 15.1296C14.8731 15.1296 14.0204 15.3179 12.7914 15.0542C11.5749 14.8031 11.4871 14.6775 11.3115 15.1045C11.1485 15.5314 12.0013 17.1638 13.0923 17.7038C14.1834 18.2438 15.9642 19.1102 18.9614 18.5954C21.9587 18.0931 21.758 16.1969 22.4478 15.8453C23.1375 15.4937 22.9118 16.2095 23.0121 16.6992C23.1125 17.1889 22.6735 16.9001 23.9652 17.5406C25.0437 18.068 24.7929 19.2986 24.517 19.2358C24.2411 19.1604 22.6861 17.2894 22.1343 18.3191C21.5825 19.3488 20.1779 19.7757 20.1779 19.7757C20.1779 19.7757 19.8769 19.5748 20.3911 20.7552C20.9053 21.9356 19.5007 25.0874 19.5634 24.1582C19.6261 23.2415 19.2875 21.6342 19.2875 21.6342C19.2875 21.6342 18.9364 21.1821 17.8955 21.7974C16.8671 22.4127 16.2777 24.4721 15.149 26.5064C14.0329 28.5532 12.4653 30.6377 11.9888 32.019C11.5122 33.4002 13.13 34.3671 12.5405 34.6183C11.9511 34.8694 11.9888 34.9824 12.7537 35.6103C14.3213 36.8911 15.751 38.1343 16.2025 39.0761C16.9298 40.5704 16.4407 41.9893 16.1523 40.6332C15.8639 39.277 13.3306 37.1046 13.1425 38.0464C12.7663 39.9425 15.7008 46.7485 15.8388 45.5556C15.9767 44.3752 18.2842 41.2485 19.438 40.3318C22.3098 38.0464 28.969 34.1034 28.7558 33.4379C28.3545 32.1696 31.3267 30.261 30.8 29.6959C30.2983 29.1434 29.0944 28.9299 27.6773 26.8705C26.1097 24.5977 27.6773 20.5919 29.7215 19.7757C31.7531 18.9595 36.4057 20.5417 39.0017 22.3876C44.2061 26.092 47.9433 31.4037 49.699 31.4162C50.4765 31.4162 50.1128 29.7712 50.5894 30.1982C51.0659 30.6251 51.0408 31.3911 50.6897 31.8557C49.8369 33.011 49.2977 33.0235 47.7301 32.2199C45.7737 31.2153 43.7421 29.2564 42.187 28.2895C37.873 25.6274 36.5186 22.9025 31.5775 22.7267C31.1762 22.7141 29.2324 22.9652 29.3829 25.2004C29.571 27.9504 32.5306 29.0555 32.6936 29.8089C32.8567 30.5498 29.6462 32.5212 29.571 32.7975C29.4957 33.0738 30.3861 32.9607 31.2389 32.7724C32.1042 32.584 32.3299 33.0486 32.957 32.9231C33.584 32.7849 34.2738 32.3454 33.7471 31.7804C32.8316 30.8135 32.9319 28.8546 33.2705 28.0132C33.7972 26.6696 34.3616 27.3854 33.8098 26.6068C33.258 25.8283 32.5055 26.8831 32.1418 26.9584C31.7782 27.0338 31.7029 26.6696 31.9286 25.9664C32.1669 25.2632 32.4052 24.5726 34.1484 24.5977C35.8915 24.6228 37.4591 26.2175 39.2274 27.2598C40.9956 28.302 45.1843 31.8808 45.6608 32.2827C46.1374 32.697 47.3037 33.35 48.0937 33.4505C48.2693 33.4756 48.4449 33.5133 48.6079 33.576C48.6079 33.576 49.3353 34.8192 48.9591 34.9071C48.5828 34.9824 47.103 34.7564 46.4634 34.9824C45.8239 35.2085 44.8708 35.3968 44.8582 35.7735C44.8582 35.7735 45.7988 36.4391 46.9024 36.7279C48.1565 37.0418 49.2726 36.8284 49.4356 37.0921C49.5986 37.3432 46.7268 37.4688 46.313 37.4185C45.1843 37.2804 42.9896 36.5772 41.3719 35.3717C39.7541 34.1662 37.0829 31.9185 35.8414 32.3706C34.5873 32.8352 32.7563 34.5429 32.0791 37.2427C31.4019 39.9425 31.1009 41.2736 30.8376 41.4243C30.5742 41.575 29.4706 41.914 29.734 41.2736C29.9974 40.6332 30.9379 37.7701 31.1386 36.4642C31.3392 35.1582 32.1795 33.8146 32.1795 33.8146C32.1795 33.8146 30.3861 34.003 27.8153 35.8112C25.2444 37.6195 21.432 40.0304 19.3878 42.2154C17.3437 44.4003 16.0771 45.2919 16.6163 47.841C17.1556 50.3901 18.6855 53.0396 19.9396 55.2874C21.1937 57.5351 21.8709 56.3547 24.2286 57.4598C26.5863 58.5648 26.7744 60.0591 28.9439 60.5865C30.8251 61.0511 32.4679 60.9004 32.9444 60.9004C33.421 60.9004 34.9259 61.0637 35.7787 60.1093C36.6314 59.1424 37.1205 57.7988 36.644 56.9198C36.1674 56.0408 34.5998 52.3113 34.3741 51.244L34.4243 51.2565ZM64.0331 38.2222C64.309 37.9459 64.6727 37.8832 64.8608 38.059C65.0489 38.2473 64.9737 38.624 64.7103 38.9003C64.4344 39.1765 64.0707 39.2393 63.8826 39.051C63.6945 38.8626 63.7698 38.4859 64.0331 38.2222ZM62.2147 37.2302C62.4404 36.9665 62.8794 36.9539 63.1803 37.2176C63.4813 37.4813 63.5315 37.9083 63.3058 38.172C63.0675 38.4357 62.6411 38.4482 62.3401 38.1845C62.0391 37.9208 61.989 37.4939 62.2272 37.2302H62.2147ZM51.9438 38.398C51.6052 38.4733 51.2791 38.3227 51.229 38.059C51.1788 37.7953 51.4045 37.5315 51.7431 37.4562C52.0817 37.3809 52.4078 37.5316 52.458 37.7953C52.5081 38.059 52.2824 38.3227 51.9438 38.398ZM54.1133 39.8421C53.7622 39.9174 53.4111 39.6914 53.3358 39.3398C53.2606 38.9882 53.4863 38.6366 53.8374 38.5612C54.1886 38.4859 54.5397 38.7119 54.615 39.0635C54.6902 39.4151 54.4645 39.7667 54.1133 39.8421ZM52.621 35.1457C54.2764 34.656 55.1166 33.9025 56.5588 34.0281C57.9885 34.1537 59.2425 34.455 59.6188 35.4973C59.9824 36.5395 59.8696 37.7576 59.3805 38.4357C58.9039 39.1012 58.3772 39.9425 57.7 39.3649C57.1231 39.2017 57.0479 38.2222 55.4928 37.6446C54.4394 37.2553 50.928 36.9414 50.928 36.3763C50.928 35.7987 50.9656 35.648 52.621 35.1582V35.1457ZM24.0154 30.6C24.0154 30.6 24.5923 29.7084 24.7929 28.9048C24.9936 28.1011 24.3415 27.6491 23.89 26.3933C23.4385 25.1376 23.6392 24.3214 23.7395 23.9196C23.8398 23.5178 24.5296 24.1331 24.3665 25.1251C24.2035 26.1171 25.1942 27.2724 25.2946 28.5909C25.3823 29.9094 24.0154 30.6 24.0154 30.6ZM37.7601 19.8887C37.0453 19.0976 36.0044 18.9093 35.1642 18.3191C34.3239 17.7289 34.6124 17.5782 34.6124 17.5782C34.6124 17.5782 36.4057 18.0554 37.7977 18.8214C39.1898 19.5874 40.1303 20.0269 40.0049 20.7426C39.8795 21.4458 38.5 20.6924 37.7727 19.9013L37.7601 19.8887ZM47.0654 38.4859C47.2034 38.2222 47.5169 38.1217 47.7551 38.2599C47.9934 38.398 48.0812 38.7119 47.9307 38.9756C47.7928 39.2268 47.4792 39.3272 47.241 39.2017C47.0027 39.0635 46.9149 38.7496 47.0654 38.4985V38.4859ZM28.8687 37.6571C28.0535 38.9128 27.3512 39.2017 26.7242 40.7336C26.0972 42.2656 25.3071 43.1446 24.9309 44.5384C24.5421 45.9323 23.9652 47.4517 23.5138 47.3889C23.0623 47.3261 23.2002 45.4551 23.6893 44.0362C24.1784 42.6172 26.3229 39.1389 26.9249 38.3729C27.5268 37.6069 28.3545 36.4767 29.0443 36.0121C29.734 35.5475 30.336 35.6605 30.336 35.6605L30.5115 36.1503C30.5115 36.1503 29.571 36.6023 28.8812 37.6571H28.8687Z" fill="#C2C5C8"/>
<path d="M66.6165 52.4111C65.6007 53.9808 63.2431 55.563 62.8041 56.0527C62.3777 56.5424 62.6286 56.4922 63.1678 56.5173C64.3843 56.555 66.7294 56.1657 67.9584 54.9602C69.1874 53.7548 69.7016 51.0801 69.7016 51.0801C69.7016 51.0801 67.2937 51.3689 66.6165 52.4111Z" fill="#C2C5C8"/>
<path d="M73.7773 46.4342C73.6393 45.7938 73.8776 45.1785 73.5516 44.7264C73.1628 44.1865 71.9338 43.4582 71.0559 43.7721C70.1781 44.0986 68.5352 45.2538 67.2937 45.1157C66.0522 44.9776 69.388 45.7436 68.8613 46.3965C68.322 47.0495 67.3439 46.5849 66.4535 46.2333C65.5756 45.8817 63.4813 45.1659 59.3554 45.1785C56.3456 45.1785 55.0664 45.279 53.7872 45.0153C52.5206 44.7516 50.8903 44.6888 49.862 44.9148C48.8336 45.1283 45.7862 46.0449 43.7671 47.9662C41.7481 49.8749 40.5567 50.9422 38.7634 51.0553C36.97 51.1683 36.0044 50.4274 35.6281 49.9628C35.2645 49.4982 36.1799 53.2151 37.0578 54.7847C37.9357 56.3544 38.0109 58.0873 37.8855 58.6649C37.6221 59.9332 36.8446 60.0462 37.898 60.3852C39.4782 60.8875 41.2214 60.7745 44.0054 59.908C46.7895 59.0416 47.4541 59.6443 49.9623 59.3806C52.4705 59.1169 55.4677 58.0119 56.0697 57.0701C56.6842 56.1283 57.0228 55.2493 57.6498 54.9731C58.2643 54.7094 58.1891 54.9982 58.1891 54.9982L57.236 56.819C60.321 57.3841 61.4873 55.9149 62.5407 55.1489C63.5942 54.3829 65.8139 52.2984 65.8766 52.0096C65.9518 51.7208 64.0331 52.6626 59.9197 51.118C55.8189 49.5609 55.1417 48.8954 51.7556 48.8075C48.3696 48.7196 44.2562 50.2642 43.9803 49.6488C43.717 49.0335 46.7769 47.5644 48.7333 47.2881C50.6897 47.0118 56.1324 47.8783 60.158 49.0461C64.1836 50.2139 65.3248 51.1808 68.159 50.5781C69.7015 50.2516 69.4883 49.8874 69.4883 49.8874C69.4883 49.8874 72.4229 49.7995 73.4512 48.2299C73.9529 47.4513 73.8776 47.0621 73.7397 46.4217L73.7773 46.4342Z" fill="#C2C5C8"/>
<path d="M52.9972 32.1694C52.8216 33.1112 53.0724 33.4502 53.0724 33.4502L54.8156 32.8224C54.5648 32.2196 54.1259 31.416 53.85 31.3406C52.8467 31.0769 53.1853 31.215 52.9972 32.1694Z" fill="#C2C5C8"/>
<path d="M42.162 18.3063C42.9771 18.5323 46.7393 19.788 47.3915 19.7755C47.3915 19.7755 47.2535 19.1602 47.1281 18.5449C46.9902 17.917 45.9744 16.9878 46.6641 16.9627C46.9275 16.9501 47.3413 17.7287 48.0812 19.3862C48.8211 21.0438 49.8244 20.8805 50.326 21.433C50.8277 21.9855 51.8184 22.6636 52.7088 22.6008C53.5992 22.5381 54.3015 22.1111 54.2011 21.7721C54.0506 21.2447 52.3576 20.9935 51.0785 19.8508C49.7993 18.6956 49.2224 17.465 48.6079 16.4227C48.006 15.393 45.1968 14.8028 43.6919 15.1419C42.5507 15.4056 41.3468 18.0928 42.162 18.3188V18.3063Z" fill="#C2C5C8"/>
<path d="M9.21723 33.2999C10.7598 33.1116 11.2363 33.6641 11.3617 33.9027C11.2238 33.5385 10.8225 32.2577 11.6 30.7508C12.5405 28.9426 14.3339 26.0796 14.3339 26.0796C14.3339 26.0796 12.4528 26.6698 11.0984 24.2588C11.0984 24.2588 9.53075 26.0042 8.60273 28.5157C7.67471 31.0271 7.57438 32.0442 7.26086 33.9278C7.26086 33.9278 7.36119 33.526 9.21723 33.2999Z" fill="#CE202F"/>
<path d="M11.3617 33.9033C11.3868 33.9661 11.4119 34.0038 11.4119 34.0038C11.4119 34.0038 11.4119 33.9661 11.3617 33.9033Z" fill="#CE202F"/>
<path d="M14.5721 46.6732C14.5721 46.6732 12.7663 43.9483 12.5781 42.7805C12.39 41.6127 11.6877 38.2976 11.6877 38.2976C11.6877 38.2976 10.835 38.825 9.58089 38.7496C9.11688 38.7245 7.311 38.1846 7.311 38.1846C7.311 38.1846 7.23575 41.3866 7.93804 43.7851C8.64032 46.1835 9.96965 48.8707 9.96965 48.8707C11.299 47.7782 11.5874 47.615 12.4778 46.9118C13.3682 46.2086 14.5847 46.6732 14.5847 46.6732H14.5721Z" fill="#CE202F"/>
<path d="M15.6256 21.8354C15.8137 22.2247 15.8638 22.388 15.8638 22.388C16.378 21.4964 18.209 20.203 18.209 20.203C18.209 20.203 17.1932 20.2783 16.2526 20.2783C15.6256 20.2783 14.9734 20.0146 14.9734 20.0146L13.9075 20.9062C13.9075 20.9062 15.4751 21.5341 15.6256 21.848V21.8354Z" fill="#CE202F"/>
<path d="M19.6136 56.9581C18.9865 56.3177 18.1714 55.1499 17.3813 53.5803C16.4407 51.7093 16.3279 50.2024 16.1523 51.207C16.0144 52.0734 12.8415 52.3246 11.8383 52.1739C11.3617 52.0985 13.9577 55.6271 14.8857 56.5563C17.2308 58.9045 21.4069 60.8509 21.4069 60.8509C21.4069 60.8509 21.8082 58.2139 22.3475 57.9753C22.9996 57.6865 20.9805 58.3394 19.6261 56.9707L19.6136 56.9581Z" fill="#CE202F"/>
<path d="M37.3212 61.4153C37.4842 61.3525 34.1609 62.0557 31.1386 61.8548C26.975 61.566 26.5361 60.1973 26.5361 60.1973C26.5361 60.1973 26.5361 60.9758 25.6708 61.9929C25.6708 61.9929 28.0284 63.2738 31.2765 63.5124C34.5246 63.7509 37.0453 63.6003 37.0453 63.6003C37.0453 63.6003 36.2051 61.8548 37.3086 61.4279L37.3212 61.4153Z" fill="#CE202F"/>
<path d="M43.8424 61.001C43.6042 61.0763 41.1838 61.3903 41.4221 61.5535C41.6603 61.7042 41.7356 62.4953 41.7356 62.4953C41.7356 62.4953 42.5131 62.1814 43.0649 61.7921C43.6167 61.4028 44.0807 60.9256 43.8424 61.0135V61.001Z" fill="#CE202F"/>
<path d="M24.3539 25.1249C24.517 24.1329 23.8272 23.5176 23.7269 23.9194C23.6266 24.3213 23.4259 25.1249 23.8774 26.3932C24.3288 27.6489 24.9935 28.101 24.7803 28.9046C24.5797 29.7083 24.0028 30.5999 24.0028 30.5999C24.0028 30.5999 25.3697 29.9092 25.2819 28.5907C25.1942 27.2722 24.1909 26.1169 24.3539 25.1249Z" fill="#091F40"/>
<path d="M11.5874 21.9476C11.7002 21.9853 12.4025 22.7513 12.9292 23.128C13.456 23.4922 13.6064 23.3792 13.9074 23.6303C14.2084 23.8689 14.2335 23.6805 14.1332 23.4922C13.8447 22.9397 11.6752 21.8221 11.5623 21.7718C11.4494 21.7342 11.462 21.91 11.5874 21.9602V21.9476Z" fill="#091F40"/>
<path d="M30.3109 35.6723C30.3109 35.6723 29.7089 35.5592 29.0192 36.0239C28.3294 36.4885 27.4892 37.6186 26.8998 38.3846C26.2978 39.1506 24.1533 42.6289 23.6642 44.0479C23.1751 45.4668 23.0246 47.3379 23.4887 47.4006C23.9401 47.4634 24.517 45.944 24.9058 44.5502C25.2945 43.1563 26.0846 42.2773 26.6991 40.7454C27.3261 39.2259 28.0284 38.9246 28.8436 37.6688C29.5333 36.6015 30.4739 36.162 30.4739 36.162L30.2983 35.6723H30.3109Z" fill="#091F40"/>
<path d="M63.2932 38.1713C63.5189 37.9076 63.4688 37.4807 63.1678 37.217C62.8668 36.9533 62.4404 36.9659 62.2021 37.2296C61.9639 37.5058 62.0266 37.9328 62.315 38.1839C62.616 38.4476 63.0424 38.435 63.2806 38.1713H63.2932Z" fill="#091F40"/>
<path d="M55.4677 37.644C57.0227 38.2217 57.098 39.2137 57.6749 39.3644C58.3521 39.942 58.8788 39.1007 59.3553 38.4351C59.8319 37.7571 59.9573 36.539 59.5936 35.4968C59.2299 34.4545 57.9758 34.1531 56.5337 34.0276C55.104 33.902 54.2638 34.6554 52.5958 35.1452C50.9405 35.6349 50.9028 35.7856 50.9028 36.3632C50.9028 36.9408 54.4017 37.2422 55.4677 37.6315V37.644ZM55.6056 35.1326C56.2828 35.1452 56.7845 34.9442 57.6874 35.3335C58.5778 35.7228 58.9164 36.3632 58.8035 36.7902C58.6907 37.192 58.2392 37.7194 58.1514 37.305C57.8379 37.418 58.164 36.8655 57.6874 36.2628C57.3488 35.8358 57.3488 35.4089 55.8063 35.4465C55.104 35.4591 54.2261 35.0949 55.6056 35.1326Z" fill="#091F40"/>
<path d="M64.6977 38.8994C64.9736 38.6231 65.0363 38.2464 64.8482 38.0581C64.6601 37.8697 64.2839 37.9451 64.0205 38.2213C63.7446 38.4976 63.6819 38.8617 63.87 39.0501C64.0581 39.2384 64.4344 39.1631 64.6977 38.8994Z" fill="#091F40"/>
<path d="M47.7426 38.2719C47.5043 38.1338 47.1908 38.2342 47.0528 38.4979C46.9149 38.7491 46.9901 39.0756 47.2284 39.2011C47.4667 39.3267 47.7802 39.2388 47.9181 38.9751C48.0561 38.7114 47.9808 38.3975 47.7426 38.2593V38.2719Z" fill="#091F40"/>
<path d="M10.1828 36.1747C9.64358 35.8607 6.80936 35.911 6.69649 35.9361C6.57108 35.9612 6.69649 36.1119 6.80936 36.0742C6.93477 36.0491 7.92549 36.3253 8.56507 36.363C9.20465 36.4007 9.66866 36.363 10.0574 36.4007C10.4462 36.4384 10.3584 36.2751 10.1828 36.1621V36.1747Z" fill="#091F40"/>
<path d="M51.7305 37.4559C51.3919 37.5313 51.1662 37.795 51.2163 38.0587C51.2665 38.3224 51.5925 38.473 51.9311 38.3977C52.2697 38.3224 52.4955 38.0587 52.4453 37.795C52.3952 37.5313 52.0691 37.3806 51.7305 37.4559Z" fill="#091F40"/>
<path d="M53.8248 38.5614C53.4737 38.6367 53.2479 38.9883 53.3232 39.3399C53.3984 39.6915 53.7496 39.9175 54.1007 39.8422C54.4519 39.7669 54.6776 39.4153 54.6023 39.0637C54.5271 38.7121 54.176 38.486 53.8248 38.5614Z" fill="#091F40"/>
<path d="M35.1391 18.3316C35.9793 18.9343 37.0202 19.1101 37.735 19.9012C38.4624 20.6923 39.8419 21.4583 39.9673 20.7425C40.0927 20.0268 39.1521 19.5998 37.7601 18.8213C36.368 18.0553 34.5747 17.5781 34.5747 17.5781C34.5747 17.5781 34.2863 17.7288 35.1265 18.319L35.1391 18.3316Z" fill="#091F40"/>
<path d="M74.931 46.3211C74.8432 44.7515 74.768 43.3953 71.7206 42.5163C71.6453 41.6875 71.0935 36.9786 67.8329 36.1373L67.532 36.0619L67.6323 36.3633C67.6323 36.3633 68.2844 38.4478 67.2184 40.8713C67.2561 39.5151 67.3313 36.3005 64.9862 35.2834C63.1427 34.4797 62.4529 34.7057 61.9889 34.869C61.6754 34.9694 61.5249 35.0197 61.1111 34.6681L60.4213 34.0653C59.8946 33.5882 59.5058 33.2491 58.7408 32.8598C60.622 32.8975 61.7256 32.1315 62.014 30.5368C62.6034 27.1338 57.2485 25.3507 54.9034 24.7479C53.411 24.3586 53.9252 23.781 53.4988 23.3038C53.574 23.2662 53.6618 23.2285 53.7371 23.1908C54.3516 22.9146 55.2796 22.5127 55.3548 21.8974C55.3548 21.8723 55.3548 21.8472 55.3548 21.8221C55.3548 21.571 55.2043 21.3198 54.9034 21.0812C53.2981 19.813 52.3952 19.7376 50.8778 17.9168C49.1471 15.8323 47.0528 13.6599 44.0054 14.1622C41.0583 14.652 41.3593 16.7364 40.8075 17.3769C40.7072 17.4899 40.1052 17.2764 39.5659 17.088C38.3871 16.6737 36.6189 16.0584 34.4995 16.2593C31.6276 16.5355 28.8561 16.7113 28.0535 16.1965C27.6647 15.9453 27.0753 15.0915 26.4984 14.2627C25.9466 13.459 25.4325 12.7056 25.0311 12.4042C23.2127 10.9476 22.7236 10.7216 19.3376 10.2821C18.2466 10.1439 17.6195 11.1736 17.0552 12.0777C16.7291 12.6051 16.4282 13.0949 16.0896 13.2581C15.1615 13.7102 13.8322 13.886 11.3742 13.8609C10.5716 13.8609 10.0825 14.3004 10.0825 15.0412C10.0825 16.3723 11.6501 18.5447 14.3965 19.4362C14.0579 19.6623 13.4936 20.039 13.0421 20.4031C12.7662 20.6166 11.8382 20.3655 11.0231 20.1394C9.90693 19.8255 8.8535 19.5367 8.47728 20.0515C8.07597 20.6041 8.97891 21.6965 10.1076 22.9648C10.1076 22.9648 10.3459 23.2411 10.4336 23.3415C10.3835 23.4169 10.2832 23.555 10.1954 23.6806C9.31751 24.8609 6.99746 27.9751 6.29518 34.0528C5.89387 34.216 4.30119 34.9192 3.22268 36.1373C3.18505 36.1875 3.15997 36.2503 3.15997 36.3131C3.15997 36.3256 3.15997 36.3507 3.15997 36.3633C3.21014 36.627 3.64906 36.853 4.70249 37.3302C5.25429 37.5813 6.00674 37.9204 6.14469 38.1087C6.16977 38.611 6.38296 42.5414 7.2232 45.2914C8.00073 47.8531 8.82842 49.3097 9.07924 49.7241C8.81588 49.9627 8.52744 50.1636 8.26408 50.3269C7.69975 50.7036 7.16049 51.0552 7.52418 51.6705C7.95056 52.3988 10.1201 52.336 10.7848 52.2858C11.0983 52.9136 12.9669 56.4673 16.0143 58.6523C18.9238 60.7367 20.83 61.4274 21.3191 61.5781C21.4069 65.0438 21.7956 65.0941 21.9336 65.1066C23.2629 65.2196 23.6767 63.6877 24.818 63.0096C24.9935 62.9594 25.9592 63.2231 26.8119 63.4616C28.0535 63.8007 29.6085 64.2276 30.7874 64.3406C32.8065 64.529 36.7192 64.2904 37.3588 64.2402C37.8353 64.8806 40.3184 68.1455 41.4972 67.8943C42.6384 67.6557 42.1368 64.2779 41.9738 63.311C42.1117 63.2482 42.3751 63.1352 42.3751 63.1352C43.1275 62.8212 44.1433 62.3817 45.5228 61.239C45.9116 61.1511 49.7992 60.3349 51.0408 60.1968C54.941 59.7698 56.2954 58.4388 56.5838 58.0872C57.0855 58.1248 59.4808 58.2504 61.4622 57.7105C63.5816 57.1203 64.9611 58.3258 68.2969 55.965C70.0276 54.747 70.3787 53.215 70.6045 52.2104C70.7048 51.7333 70.7926 51.3691 70.9681 51.2938C72.8242 50.5654 74.9687 49.3223 74.9687 47.4638C74.9687 47.288 74.8934 46.3086 74.8934 46.3086L74.931 46.3211ZM68.6606 40.7081C69.3629 39.5403 68.1715 37.2548 69.2751 38.498C70.3286 39.6909 70.2032 40.1179 70.3662 40.8964C70.5292 41.6624 70.8678 42.5916 70.0025 43.5837C69.1372 44.5757 67.532 44.3245 67.532 44.3245C67.532 44.3245 67.3689 42.8679 68.6481 40.7081H68.6606ZM66.6416 43.772C66.6416 44.2492 66.0772 45.078 65.7637 44.8896C64.8733 44.3496 62.9169 44.2743 62.9169 44.2743C62.9169 44.2743 62.8542 43.998 62.9169 43.4079C62.9796 42.8177 63.0423 42.6042 63.7572 42.3531C64.472 42.1019 65.5756 42.2526 66.0396 42.3531C66.5036 42.441 66.629 43.2948 66.629 43.772H66.6416ZM43.6919 15.1417C45.2093 14.7901 48.0059 15.3803 48.6079 16.4225C49.2098 17.4648 49.7992 18.6954 51.0784 19.8506C52.3576 21.0059 54.038 21.2445 54.2011 21.7719C54.3014 22.1109 53.5991 22.5379 52.7087 22.6006C51.8183 22.6634 50.8276 21.9728 50.326 21.4328C49.8243 20.8803 48.8211 21.0436 48.0812 19.386C47.3413 17.7285 46.9274 16.9499 46.664 16.9625C45.9743 16.9876 46.9901 17.9168 47.1281 18.5447C47.2535 19.1725 47.3914 19.7753 47.3914 19.7753C46.7393 19.7753 42.977 18.5321 42.1619 18.3061C41.3467 18.0801 42.5507 15.3928 43.6919 15.1291V15.1417ZM13.1174 17.7033C12.0263 17.1634 11.1736 15.531 11.3366 15.104C11.4996 14.6896 11.5999 14.8026 12.8164 15.0538C14.0329 15.3049 14.8982 15.1291 14.8982 15.1291C14.8982 15.1291 15.0737 15.3426 14.6599 15.8198C14.2461 16.3095 14.5345 16.4853 15.2995 15.8198C16.0645 15.1417 16.9674 14.5515 17.77 13.4841C18.5852 12.4168 18.5852 11.7638 19.3376 11.7261C20.1026 11.6885 21.5573 12.1531 22.824 12.6679C24.1031 13.1828 26.2225 16.5355 27.4014 17.8415C28.5802 19.1349 28.8561 19.2102 29.0818 19.0344C29.295 18.8586 28.8059 18.3186 29.0191 18.1428C29.2449 17.967 30.7247 17.3769 33.8473 17.5024C36.97 17.6154 37.9607 18.3061 41.1461 19.3107C44.3315 20.3152 47.9432 21.5584 48.9339 21.9853C49.9372 22.4123 52.4704 24.3335 52.646 24.5596C52.8216 24.773 51.881 24.5847 51.9563 24.9614C52.0315 25.3381 54.3641 25.4134 55.1918 25.6269C56.0195 25.8529 59.8444 27.7365 60.2457 28.4272C60.647 29.1178 61.2616 31.127 60.0576 31.5037C58.8537 31.8929 56.3957 31.8427 55.1291 30.813C53.875 29.7833 53.8374 30.813 52.0064 27.0208C51.3668 25.7023 51.0032 25.0367 50.0501 24.208C49.862 24.0447 49.097 23.3666 49.3979 24.208C49.7115 25.0493 51.4045 27.5356 51.4045 27.5356C50.3385 27.3849 46.3756 23.3038 45.4601 23.2411C44.5446 23.1783 44.344 23.4671 44.5196 23.6931C44.6951 23.9191 46.2502 25.1497 47.8053 26.3678C49.3603 27.5858 51.2916 28.8039 51.6804 30.0094C52.0691 31.2149 52.3325 31.7925 51.6804 32.9729C51.2289 33.7765 50.6771 34.1156 50.2883 34.2286C49.9497 34.4672 48.194 35.6852 49.4857 35.321C50.2382 35.1076 54.5146 33.7137 56.6214 33.5505C58.7283 33.3872 59.5309 35.2206 59.9949 35.4968C60.4589 35.7857 59.4808 36.2879 61.0734 36.0494C62.6661 35.8108 64.2713 36.5265 65.3749 37.8325C66.4785 39.151 65.9644 41.0597 65.9644 41.0597C65.9644 41.0597 65.6383 41.3736 64.6099 41.0973C63.5941 40.8211 63.1427 41.022 61.7883 41.022C60.4339 41.022 59.6689 40.5951 59.2926 40.1932C58.9164 39.7914 58.6907 39.4524 58.7283 40.5072C58.7534 41.2606 56.5211 42.24 55.9192 42.0768C53.712 41.4992 52.4955 42.127 52.3952 41.6624C52.2949 41.1978 51.8559 40.4695 51.3543 39.5151C50.8527 38.5608 49.3854 37.506 48.9214 37.6064C48.4574 37.7069 48.9214 39.8291 48.7458 40.8462C48.5828 41.8633 47.4165 40.5448 46.3505 40.0928C45.2846 39.6407 41.8484 36.8907 40.4689 35.8736C39.0894 34.8564 37.2584 33.7388 36.4307 33.9146C35.6031 34.0904 35.0387 35.095 34.9008 35.4089C34.7628 35.7229 34.6123 36.7274 35.0011 36.3507C35.4024 35.9615 35.9793 35.4717 35.7159 35.9991C35.44 36.5391 34.5496 38.2469 33.8223 41.7001C33.1074 45.1533 34.2236 50.1887 34.4493 51.2561C34.675 52.3234 36.2426 56.0655 36.7192 56.9319C37.1957 57.7984 36.7192 59.1545 35.8539 60.1214C35.0011 61.0883 33.4962 60.9125 33.0196 60.9125C32.5431 60.9125 30.8877 61.0632 29.0191 60.5986C26.8496 60.0712 26.6615 58.5769 24.3038 57.4719C21.9461 56.3668 21.2689 57.5472 20.0148 55.2995C18.7607 53.0518 17.2308 50.4022 16.6915 47.8531C16.1523 45.2914 17.4063 44.3999 19.463 42.2275C21.5072 40.0425 25.3196 37.6316 27.8905 35.8233C30.4613 34.0151 32.2547 33.8267 32.2547 33.8267C32.2547 33.8267 31.427 35.1704 31.2138 36.4763C31.0131 37.7823 30.0726 40.6327 29.8092 41.2857C29.5458 41.9261 30.6494 41.5871 30.9128 41.4364C31.1636 41.2857 31.4771 39.9546 32.1543 37.2548C32.8315 34.5551 34.6625 32.8347 35.9166 32.3827C37.1581 31.9306 39.8418 34.1658 41.4471 35.3838C43.0648 36.5893 45.2595 37.28 46.3881 37.4306C46.802 37.4809 49.6738 37.3553 49.5108 37.1042C49.3603 36.853 48.2442 37.0665 46.9776 36.74C45.874 36.4637 44.9334 35.7857 44.9334 35.7857C44.946 35.3964 45.9116 35.2206 46.5386 34.9946C47.1782 34.7685 48.658 34.9946 49.0343 34.9192C49.4105 34.8439 48.6831 33.6007 48.6831 33.5882C48.5201 33.5254 48.3445 33.4751 48.1689 33.4626C47.3789 33.3747 46.2 32.7092 45.736 32.2948C45.2595 31.8804 41.0708 28.3141 39.3026 27.2719C37.5343 26.2297 35.9667 24.6349 34.2236 24.6098C32.4804 24.5847 32.2421 25.2753 32.0038 25.9785C31.7656 26.6817 31.8533 27.0459 32.217 26.9705C32.5807 26.8952 33.3332 25.8404 33.885 26.6189C34.4368 27.3975 33.8724 26.6817 33.3457 28.0253C33.0071 28.8667 32.9068 30.8256 33.8223 31.7925C34.349 32.3576 33.6592 32.7971 33.0322 32.9352C32.4051 33.0608 32.1669 32.6087 31.3141 32.7845C30.4613 32.9729 29.5709 33.0859 29.6462 32.8096C29.7214 32.5334 32.9193 30.5744 32.7688 29.821C32.6058 29.0676 29.6462 27.9625 29.4581 25.2125C29.3076 22.9899 31.2514 22.7262 31.6527 22.7388C36.5938 22.9146 37.9482 25.652 42.2622 28.3016C43.8298 29.2685 45.8489 31.2149 47.8053 32.232C49.3729 33.0356 49.9121 33.0231 50.7649 31.8678C51.116 31.3907 51.1411 30.6372 50.6646 30.2103C50.188 29.7833 50.5392 31.4283 49.7742 31.4283C48.0185 31.4283 44.2813 26.1041 39.0769 22.3997C36.4809 20.5538 31.8283 18.9591 29.7967 19.7878C27.765 20.6041 26.1849 24.6098 27.7525 26.8826C29.1696 28.942 30.3735 29.1555 30.8752 29.708C31.4019 30.2731 28.4297 32.1818 28.831 33.45C29.0442 34.1156 22.385 38.0585 19.5132 40.3439C18.3594 41.2606 16.0519 44.3873 15.914 45.5677C15.776 46.7606 12.8415 39.9546 13.2177 38.0585C13.4058 37.1167 15.9391 39.2891 16.2275 40.6453C16.5159 42.0015 17.005 40.5951 16.2777 39.0882C15.8262 38.1464 14.3965 36.9032 12.8289 35.6224C12.0639 34.9946 12.0263 34.8815 12.6157 34.6304C13.2052 34.3793 11.5874 33.4124 12.0639 32.0311C12.5405 30.6498 14.1081 28.5653 15.2242 26.5185C16.3404 24.4717 16.9298 22.4248 17.9707 21.8095C19.0116 21.1942 19.3627 21.6463 19.3627 21.6463C19.3627 21.6463 19.7013 23.2411 19.6386 24.1703C19.5759 25.087 20.9805 21.9477 20.4663 20.7673C19.9521 19.5744 20.2531 19.7878 20.2531 19.7878C20.2531 19.7878 21.6577 19.3609 22.2095 18.3312C22.7613 17.3015 24.3289 19.1725 24.5922 19.2479C24.8681 19.3232 25.1189 18.0801 24.0404 17.5527C22.7362 16.9122 23.1876 17.2136 23.0873 16.7113C22.987 16.2216 23.2127 15.5058 22.523 15.8574C21.8332 16.209 22.0339 18.1052 19.0366 18.6075C16.0394 19.1223 14.2586 18.2559 13.1675 17.7159L13.1174 17.7033ZM54.803 32.8222L53.0599 33.45C53.0599 33.45 52.809 33.111 52.9846 32.1692C53.1727 31.2149 52.8341 31.0893 53.8374 31.3404C54.1133 31.4158 54.5522 32.2194 54.803 32.8222ZM61.6252 44.0859C60.7474 43.546 57.7 44.1613 57.7 44.1613L58.49 43.2069C58.8663 42.7423 58.7659 42.9307 59.4808 42.6795C60.1956 42.4284 60.5342 42.4158 60.9982 42.5163C61.4622 42.6168 61.9011 42.0015 61.9011 42.4786C61.9011 42.9558 61.9262 44.2869 61.6127 44.0985L61.6252 44.0859ZM56.3832 44.1236C54.64 44.3371 53.5866 43.9855 53.3232 44.199C53.0599 44.4124 52.784 43.0186 53.7245 42.9809C54.6651 42.9432 54.7654 43.5334 55.5931 43.3576C55.9317 43.2823 57.1105 43.0311 57.1105 43.0311C57.1105 43.0311 58.1263 43.9101 56.3832 44.1236ZM51.5048 43.5209C50.9405 43.885 49.7742 44.1362 48.9966 44.2994C47.9432 44.5254 49.0719 43.119 49.2098 42.0266C49.3478 40.9341 49.6738 39.6156 49.6989 39.1259C49.724 38.3975 50.4388 39.6407 50.9405 40.8336C51.2289 41.5368 52.0691 43.1442 51.5048 43.5083V43.5209ZM35.2394 43.772C35.4776 43.9101 36.042 43.0186 36.3555 42.667C36.669 42.3154 36.8195 42.0768 37.0829 42.4033C37.3462 42.7298 38.663 45.3291 39.3402 45.2789C40.0174 45.2286 39.9798 44.651 40.6695 44.0232C41.3593 43.3953 41.5223 42.5289 41.9236 42.6419C42.3249 42.7423 43.2028 44.5506 43.5539 44.8645C43.9051 45.1784 44.1684 45.0277 45.1591 44.2366C46.1624 43.4455 47.0152 41.8382 47.5043 41.8005C47.9934 41.7629 48.4323 42.0894 48.4323 42.0894C48.4323 42.0894 48.1188 43.32 47.868 43.9478C47.6171 44.5757 46.8898 44.3496 45.109 45.304C43.3282 46.2583 41.8484 47.7526 41.0583 48.1168C40.2682 48.4809 39.7164 47.5266 39.2524 47.1373C38.7884 46.7606 39.0769 46.296 38.7508 46.6476C38.4247 46.9992 37.2835 47.9284 35.9417 47.5517C34.5998 47.1624 34.5998 44.3873 34.65 42.3405C34.7001 40.2937 35.5153 38.6738 35.7786 38.5106C36.042 38.3599 36.7066 38.7994 36.8697 39.1384C37.0452 39.49 37.6347 39.9546 37.9482 39.2138C38.2742 38.4729 39.0142 37.6316 39.5158 37.7069C40.0174 37.7948 40.4563 39.8291 41.2339 39.8667C42.0114 39.9044 42.1995 39.3645 42.5632 39.2766C42.9269 39.2012 43.1401 39.7412 44.344 40.3565C45.5479 40.9718 46.4508 41.361 46.4508 41.361C46.4508 41.361 44.9836 42.893 44.7704 43.2195C44.5572 43.5585 44.1183 43.8474 43.8047 43.7092C43.4912 43.5837 42.9394 41.4238 42.7889 41.1601C42.6384 40.8964 42.488 40.6453 41.6728 40.9215C40.8577 41.1852 39.3904 44.0734 39.0142 43.6716C38.6379 43.2697 37.3337 40.7709 37.0829 40.5323C36.8446 40.2937 36.6565 40.3314 35.9291 41.4615C35.2017 42.5916 35.0262 43.5962 35.2645 43.7343L35.2394 43.772ZM39.0769 32.4203C39.0769 32.4203 39.0769 32.3324 39.0769 32.1943C39.0142 31.9808 38.7257 31.6418 37.7852 31.2274C36.1925 30.5242 35.5278 31.3028 34.65 31.0767C33.7846 30.8507 34.5245 30.474 34.2361 29.1052C33.9477 27.724 34.8757 26.2799 35.3522 26.5813C35.8288 26.8952 40.9329 29.5322 39.9798 29.9466C39.2273 30.2731 39.0894 31.6418 39.0769 32.1943C39.127 32.3324 39.0769 32.4203 39.0769 32.4203ZM40.8953 30.9888C41.3091 30.6623 41.8609 30.6749 42.1117 30.9888C42.3751 31.3153 42.2497 31.8553 41.8358 32.1692C41.422 32.4957 40.8827 32.4831 40.6194 32.1566C40.356 31.8302 40.494 31.2902 40.8953 30.9763V30.9888ZM14.9734 20.0013C14.9734 20.0013 15.6255 20.265 16.2526 20.265C17.1931 20.265 18.2089 20.1897 18.2089 20.1897C18.2089 20.1897 16.378 21.4831 15.8638 22.3746C15.8638 22.3746 15.8262 22.2114 15.6255 21.8221C15.4751 21.5082 13.9074 20.8803 13.9074 20.8803L14.9734 19.9888V20.0013ZM10.07 21.3073C10.07 21.3073 9.88185 20.8426 10.4211 20.9808C10.9604 21.1189 11.8382 21.2319 12.6534 21.5584C13.4811 21.8849 14.8355 22.45 15.0612 22.9146C15.2869 23.3666 15.149 24.1703 14.8355 24.4968C14.5219 24.8107 14.6724 25.2502 13.6566 25.087C12.6408 24.9237 12.0012 23.7182 11.3491 22.9774C10.6845 22.2365 10.0825 21.3198 10.0825 21.3198L10.07 21.3073ZM8.61523 28.5025C9.54325 25.9911 11.1108 24.2456 11.1108 24.2456C12.4653 26.6566 14.3464 26.0664 14.3464 26.0664C14.3464 26.0664 12.553 28.942 11.6125 30.7377C10.8349 32.2445 11.2363 33.5128 11.3742 33.8895C11.2488 33.6509 10.7722 33.0984 9.22973 33.2868C7.37369 33.5128 7.27336 33.9146 7.27336 33.9146C7.58688 32.0311 7.68721 31.0139 8.61523 28.5025ZM5.31699 36.1749C4.37643 35.9489 4.90315 35.8861 6.32026 35.2959C7.74991 34.7057 9.58087 34.2411 10.5591 34.442C11.0105 34.5299 11.3617 35.1201 11.299 35.7982C11.2363 36.4135 11.161 36.6898 10.8475 37.1795C10.5214 37.6818 9.73136 37.6818 8.61523 37.3679C7.49909 37.0539 6.13215 36.3758 5.34207 36.1875L5.31699 36.1749ZM7.93802 43.772C7.23574 41.3736 7.31098 38.1715 7.31098 38.1715C7.31098 38.1715 9.11686 38.7115 9.58087 38.7366C10.835 38.8119 11.6877 38.2845 11.6877 38.2845C11.6877 38.2845 12.39 41.5996 12.5781 42.7674C12.7662 43.9353 14.5721 46.6602 14.5721 46.6602C14.5721 46.6602 13.3557 46.1955 12.4653 46.8987C11.5749 47.5894 11.2864 47.7652 9.95709 48.8577C9.95709 48.8577 8.61523 46.1704 7.92548 43.772H7.93802ZM9.71882 51.1305C9.71882 51.1305 9.22973 51.0301 9.63103 50.6659C10.0323 50.2892 10.6092 49.6111 11.324 49.0963C12.0514 48.5814 13.4058 47.5266 13.9074 47.5894C14.4091 47.6522 15.0487 48.1796 15.149 48.6065C15.2493 49.046 15.6882 50.1887 15.2995 50.6408C14.6348 51.4193 12.7662 50.804 11.7881 50.9547C10.8099 51.1054 9.70628 51.118 9.70628 51.118L9.71882 51.1305ZM21.4194 60.8246C21.4194 60.8246 17.2433 58.8783 14.8982 56.5301C13.9702 55.6009 11.3867 52.0849 11.8508 52.1476C12.8666 52.3109 16.0268 52.0472 16.1648 51.1807C16.3278 50.1762 16.4532 51.683 17.3938 53.554C18.1839 55.1362 18.999 56.2915 19.6261 56.9319C20.9805 58.3007 22.9995 57.6477 22.3474 57.9365C21.8207 58.1751 21.4069 60.8121 21.4069 60.8121L21.4194 60.8246ZM22.8365 63.65C22.3976 64.1648 22.6484 63.9639 22.3725 62.4445C22.0966 60.9251 22.4101 59.5061 22.7989 58.602C22.9745 58.1751 23.3256 57.8486 23.9652 58.0621C24.5546 58.2504 25.2945 58.8532 25.7084 59.2801C26.1347 59.6945 25.5202 60.1842 24.981 61.2139C24.4417 62.2436 23.3632 63.0347 22.8365 63.6626V63.65ZM37.0703 63.5747C37.0703 63.5747 34.5496 63.7253 31.3016 63.4868C28.0535 63.2607 25.6958 61.9673 25.6958 61.9673C26.5611 60.9502 26.5611 60.1717 26.5611 60.1717C26.5611 60.1717 27.0001 61.5404 31.1636 61.8292C34.1859 62.0301 37.5093 61.3269 37.3462 61.3897C36.2426 61.8292 37.0829 63.5621 37.0829 63.5621L37.0703 63.5747ZM41.0332 66.0359C41.0332 66.5884 40.1679 65.9354 39.6537 65.2824C38.8637 64.303 38.3495 63.7505 38.036 63.0096C37.8855 62.6705 37.898 62.2687 38.3746 62.0176C38.826 61.779 39.591 61.6911 40.0676 61.6785C40.5441 61.6785 40.5065 62.3566 40.8075 63.2607C41.1085 64.1523 41.0458 65.3954 41.0207 66.0484L41.0332 66.0359ZM43.0774 61.7664C42.5256 62.1557 41.7481 62.4696 41.7481 62.4696C41.7481 62.4696 41.6728 61.6911 41.4345 61.5278C41.1963 61.3772 43.6292 61.0632 43.8549 60.9753C44.0932 60.9 43.6166 61.3646 43.0774 61.7539V61.7664ZM67.9834 54.9479C66.7544 56.1534 64.4093 56.5552 63.1928 56.505C62.6536 56.4924 62.3902 56.5426 62.8292 56.0404C63.2681 55.5381 65.6258 53.9559 66.6416 52.3988C67.3188 51.3565 69.7266 51.0677 69.7266 51.0677C69.7266 51.0677 69.2124 53.7424 67.9834 54.9479ZM73.5014 48.2424C72.4856 49.812 69.5385 49.8999 69.5385 49.8999C69.5385 49.8999 69.7517 50.2515 68.2092 50.5906C65.3749 51.1933 64.2212 50.2264 60.2081 49.0586C56.1825 47.8908 50.7523 47.0243 48.7834 47.3006C46.8271 47.5894 43.7671 49.046 44.0305 49.6613C44.2938 50.2766 48.4072 48.7321 51.8058 48.82C55.1918 48.9079 55.869 49.5734 59.9698 51.1305C64.0707 52.6876 65.9894 51.7458 65.9267 52.0221C65.8515 52.3109 63.6318 54.3954 62.5909 55.1614C61.5374 55.9273 60.3712 57.3965 57.2861 56.8315L58.2392 55.0107C58.2392 55.0107 58.3145 54.7219 57.7 54.9856C57.0855 55.2493 56.7343 56.1283 56.1198 57.0826C55.5053 58.0244 52.5081 59.1294 50.0124 59.3931C47.5043 59.6568 46.8396 59.0541 44.0556 59.9205C41.2715 60.787 39.5158 60.9 37.9482 60.3977C36.8822 60.0587 37.6597 59.9456 37.9356 58.6774C38.0611 58.0997 37.9858 56.3668 37.1079 54.7972C36.2301 53.2276 35.3146 49.5106 35.6783 49.9753C36.042 50.4399 37.0076 51.1807 38.8135 51.0677C40.6068 50.9547 41.7982 49.8874 43.8173 47.9787C45.8364 46.07 48.8712 45.1533 49.9121 44.9273C50.9405 44.7012 52.5708 44.764 53.8374 45.0277C55.104 45.304 56.3957 45.2035 59.4055 45.191C63.5314 45.191 65.6132 45.8942 66.5036 46.2458C67.3815 46.5974 68.3722 47.062 68.9114 46.409C69.4382 45.756 66.1023 44.9775 67.3438 45.1282C68.5854 45.2663 70.2282 44.1111 71.1061 43.7846C71.9839 43.4581 73.2004 44.199 73.6017 44.7389C73.9278 45.191 73.6895 45.8063 73.8274 46.4467C73.9654 47.0871 74.0406 47.4764 73.539 48.2549L73.5014 48.2424Z" fill="#091F40"/>
<path d="M39.3026 63.5367C39.0267 63.0847 39.2775 63.2353 39.1396 62.9591C38.9891 62.6703 38.5502 62.7833 38.5627 62.9465C38.5878 63.4488 39.8042 64.9306 39.8795 65.0059C39.9547 65.0687 39.9924 64.9306 39.9296 64.8552C39.8544 64.7924 39.591 63.9888 39.3277 63.5367H39.3026Z" fill="#091F40"/>
<path d="M13.7319 49.1715C14.1081 49.0459 13.9451 48.9203 13.7319 48.9078C13.1174 48.8576 10.998 50.0505 10.8977 50.1258C10.7973 50.2012 10.9604 50.2891 11.0607 50.2137C11.161 50.1384 12.1768 49.9626 12.7788 49.724C13.3807 49.4854 13.3557 49.2971 13.7319 49.1715Z" fill="#091F40"/>
<path d="M23.3006 58.9918C22.8867 59.4438 22.5983 61.792 22.5983 61.9176C22.5983 62.0306 22.7613 61.9553 22.7613 61.8297C22.7613 61.7041 23.2378 60.7874 23.4134 60.1721C23.5764 59.5443 23.6642 59.8959 23.7896 59.5192C23.9151 59.155 23.4385 58.8411 23.3006 58.9918Z" fill="#091F40"/>
<path d="M46.8271 63.2481H47.5294V65.3954H47.7927V63.2481H48.5452V62.9844H46.8271V63.2481Z" fill="#091F40"/>
<path d="M49.9121 64.9433L49.2976 62.9844H48.8838V65.3954H49.1346V63.3485L49.7867 65.3954H50.0375L50.6897 63.3485V65.3954H50.9405V62.9844H50.5266L49.9121 64.9433Z" fill="#091F40"/>
</svg>
