<svg width="329" height="278" viewBox="0 0 329 278" fill="none" xmlns="http://www.w3.org/2000/svg">
<path d="M245.255 0H0L37.5938 62.6564V214.623L0 277.379H253.808C311.293 277.379 312.785 239.487 312.785 209.849V52.8104C312.785 38.5884 308.806 0 245.255 0ZM203.484 214.623L168.277 273.401L132.971 214.623V62.7558L168.277 3.97818L203.484 62.6564V214.623Z" fill="white"/>
<path d="M321.228 265.63C322.309 265.63 323.323 265.63 323.323 266.847C323.323 268.064 321.566 267.928 320.349 267.928H318.93V265.63H321.228ZM322.174 269.213C322.51 269.244 322.849 269.201 323.167 269.086C323.484 268.971 323.773 268.788 324.011 268.549C324.25 268.311 324.433 268.022 324.548 267.705C324.663 267.387 324.706 267.048 324.675 266.712C324.675 264.752 323.12 264.279 321.498 264.279H317.578V273.538H318.93V269.213H320.619L322.985 273.538H324.539L322.174 269.213ZM320.755 277.052C322.385 277.052 323.98 276.569 325.335 275.663C326.691 274.757 327.748 273.469 328.372 271.962C328.996 270.456 329.16 268.798 328.842 267.198C328.523 265.599 327.738 264.13 326.585 262.977C325.432 261.823 323.963 261.038 322.363 260.72C320.764 260.402 319.106 260.565 317.599 261.189C316.092 261.813 314.805 262.87 313.899 264.226C312.993 265.582 312.509 267.176 312.509 268.807C312.5 269.892 312.707 270.969 313.118 271.973C313.53 272.977 314.137 273.89 314.904 274.657C315.671 275.425 316.584 276.032 317.589 276.443C318.593 276.854 319.669 277.061 320.755 277.052ZM320.755 261.913C322.091 261.913 323.398 262.31 324.509 263.052C325.621 263.795 326.487 264.85 326.999 266.085C327.51 267.32 327.644 268.679 327.383 269.99C327.122 271.301 326.479 272.506 325.534 273.451C324.588 274.396 323.384 275.04 322.073 275.301C320.762 275.561 319.403 275.427 318.168 274.916C316.933 274.404 315.878 273.538 315.135 272.427C314.392 271.315 313.996 270.009 313.996 268.672C313.996 266.879 314.708 265.16 315.976 263.893C317.243 262.625 318.962 261.913 320.755 261.913Z" fill="white"/>
</svg>
